<svg width="34" height="34" viewBox="0 0 34 34" fill="none" xmlns="http://www.w3.org/2000/svg">
<g clip-path="url(#clip0_55_309)">
<path d="M16.6772 3.63016C21.1332 3.63016 21.6609 3.6497 23.4133 3.72788C25.0419 3.79954 25.9214 4.07315 26.5077 4.30116C27.2829 4.60083 27.8432 4.96564 28.423 5.54544C29.0093 6.13175 29.3676 6.68548 29.6673 7.46072C29.8953 8.04703 30.1689 8.933 30.2405 10.5551C30.3187 12.3141 30.3383 12.8417 30.3383 17.2912C30.3383 21.7471 30.3187 22.2748 30.2405 24.0272C30.1689 25.6559 29.8953 26.5353 29.6673 27.1216C29.3676 27.8969 29.0028 28.4571 28.423 29.0369C27.8367 29.6232 27.2829 29.9815 26.5077 30.2812C25.9214 30.5092 25.0354 30.7828 23.4133 30.8545C21.6544 30.9326 21.1267 30.9522 16.6772 30.9522C12.2213 30.9522 11.6936 30.9326 9.94121 30.8545C8.31257 30.7828 7.4331 30.5092 6.84679 30.2812C6.07156 29.9815 5.51131 29.6167 4.93151 29.0369C4.34521 28.4506 3.9869 27.8969 3.68724 27.1216C3.45923 26.5353 3.18562 25.6493 3.11396 24.0272C3.03578 22.2683 3.01624 21.7406 3.01624 17.2912C3.01624 12.8352 3.03578 12.3075 3.11396 10.5551C3.18562 8.92649 3.45923 8.04703 3.68724 7.46072C3.9869 6.68548 4.35172 6.12523 4.93151 5.54544C5.51782 4.95913 6.07156 4.60083 6.84679 4.30116C7.4331 4.07315 8.31908 3.79954 9.94121 3.72788C11.6936 3.6497 12.2213 3.63016 16.6772 3.63016ZM16.6772 0.626953C12.1496 0.626953 11.5829 0.646497 9.8044 0.724671C8.03244 0.802846 6.81422 1.08949 5.75886 1.4999C4.6579 1.92986 3.72632 2.49663 2.80126 3.42821C1.86968 4.35328 1.30291 5.28486 0.87295 6.3793C0.462533 7.44117 0.175893 8.65288 0.0977183 10.4248C0.0195437 12.2098 0 12.7766 0 17.3042C0 21.8318 0.0195437 22.3986 0.0977183 24.1771C0.175893 25.949 0.462533 27.1672 0.87295 28.2226C1.30291 29.3235 1.86968 30.2551 2.80126 31.1802C3.72632 32.1053 4.6579 32.6785 5.75235 33.102C6.81422 33.5124 8.02593 33.799 9.79788 33.8772C11.5764 33.9554 12.1431 33.9749 16.6707 33.9749C21.1983 33.9749 21.7651 33.9554 23.5436 33.8772C25.3155 33.799 26.5338 33.5124 27.5891 33.102C28.6836 32.6785 29.6151 32.1053 30.5402 31.1802C31.4653 30.2551 32.0386 29.3235 32.462 28.2291C32.8724 27.1672 33.1591 25.9555 33.2372 24.1836C33.3154 22.4051 33.335 21.8383 33.335 17.3107C33.335 12.7831 33.3154 12.2163 33.2372 10.4379C33.1591 8.66591 32.8724 7.44769 32.462 6.39233C32.0516 5.28486 31.4848 4.35328 30.5532 3.42821C29.6282 2.50314 28.6966 1.92986 27.6022 1.50642C26.5403 1.096 25.3286 0.809361 23.5566 0.731186C21.7716 0.646497 21.2049 0.626953 16.6772 0.626953Z" fill="white"/>
<path d="M16.6775 8.73779C11.9479 8.73779 8.11084 12.5749 8.11084 17.3044C8.11084 22.034 11.9479 25.8711 16.6775 25.8711C21.407 25.8711 25.2441 22.034 25.2441 17.3044C25.2441 12.5749 21.407 8.73779 16.6775 8.73779ZM16.6775 22.8613C13.6091 22.8613 11.1206 20.3728 11.1206 17.3044C11.1206 14.2361 13.6091 11.7475 16.6775 11.7475C19.7458 11.7475 22.2344 14.2361 22.2344 17.3044C22.2344 20.3728 19.7458 22.8613 16.6775 22.8613Z" fill="white"/>
<path d="M27.5825 8.3989C27.5825 9.50637 26.6834 10.3989 25.5825 10.3989C24.475 10.3989 23.5825 9.49986 23.5825 8.3989C23.5825 7.29142 24.4815 6.39893 25.5825 6.39893C26.6834 6.39893 27.5825 7.29794 27.5825 8.3989Z" fill="white"/>
</g>
<defs>
<clipPath id="clip0_55_309">
<rect width="33.3545" height="33.3545" fill="white" transform="translate(0 0.626953)"/>
</clipPath>
</defs>
</svg>
