<svg width="34" height="34" viewBox="0 0 34 34" fill="none" xmlns="http://www.w3.org/2000/svg">
<g clip-path="url(#clip0_55_312)">
<path d="M28.5324 6.40239C26.4065 5.42693 24.1268 4.70826 21.7432 4.29665C21.6998 4.2887 21.6564 4.30856 21.6341 4.34826C21.3409 4.86973 21.0161 5.55002 20.7887 6.08472C18.225 5.70091 15.6745 5.70091 13.1633 6.08472C12.9359 5.53813 12.5993 4.86973 12.3048 4.34826C12.2824 4.30988 12.2391 4.29003 12.1957 4.29665C9.81341 4.70695 7.5337 5.42562 5.40648 6.40239C5.38807 6.41033 5.37228 6.42358 5.36181 6.44077C1.03768 12.9009 -0.146881 19.2023 0.434224 25.4255C0.436854 25.456 0.453945 25.4851 0.47761 25.5036C3.33055 27.5987 6.0941 28.8707 8.80634 29.7138C8.84975 29.727 8.89574 29.7111 8.92336 29.6754C9.56494 28.7992 10.1369 27.8754 10.6272 26.9039C10.6562 26.847 10.6285 26.7795 10.5694 26.757C9.66224 26.4129 8.79845 25.9933 7.96755 25.5169C7.90182 25.4785 7.89656 25.3845 7.95702 25.3395C8.13188 25.2085 8.30678 25.0721 8.47374 24.9345C8.50394 24.9093 8.54603 24.904 8.58155 24.9199C14.0402 27.4122 19.9499 27.4122 25.3442 24.9199C25.3797 24.9027 25.4218 24.908 25.4533 24.9332C25.6203 25.0708 25.7952 25.2085 25.9713 25.3395C26.0318 25.3845 26.0278 25.4785 25.9621 25.5169C25.1312 26.0026 24.2674 26.4129 23.359 26.7557C23.2998 26.7782 23.2735 26.847 23.3024 26.9039C23.8033 27.874 24.3752 28.7979 25.005 29.6741C25.0313 29.7111 25.0786 29.727 25.122 29.7138C27.8474 28.8707 30.6109 27.5987 33.4639 25.5036C33.4889 25.4851 33.5046 25.4573 33.5073 25.4269C34.2027 18.2321 32.3424 11.9824 28.5757 6.44209C28.5665 6.42358 28.5508 6.41033 28.5324 6.40239ZM11.4424 21.6362C9.79894 21.6362 8.4448 20.1274 8.4448 18.2745C8.4448 16.4215 9.77268 14.9127 11.4424 14.9127C13.1252 14.9127 14.4662 16.4348 14.4399 18.2745C14.4399 20.1274 13.112 21.6362 11.4424 21.6362ZM22.5254 21.6362C20.882 21.6362 19.5279 20.1274 19.5279 18.2745C19.5279 16.4215 20.8557 14.9127 22.5254 14.9127C24.2083 14.9127 25.5493 16.4348 25.523 18.2745C25.523 20.1274 24.2083 21.6362 22.5254 21.6362Z" fill="white"/>
</g>
<defs>
<clipPath id="clip0_55_312">
<rect width="33.3545" height="33.3545" fill="white" transform="translate(0.296387 0.626953)"/>
</clipPath>
</defs>
</svg>
