<svg width="34" height="34" viewBox="0 0 34 34" fill="none" xmlns="http://www.w3.org/2000/svg">
<g clip-path="url(#clip0_55_311)">
<path d="M16.875 0.626953C7.66449 0.626953 0.197754 8.09369 0.197754 17.3042C0.197754 25.1252 5.5825 31.688 12.8464 33.4905V22.4008H9.4076V17.3042H12.8464V15.1081C12.8464 9.43187 15.4154 6.80087 20.9883 6.80087C22.045 6.80087 23.8681 7.00834 24.6139 7.21513V11.8347C24.2203 11.7934 23.5366 11.7727 22.6874 11.7727C19.953 11.7727 18.8963 12.8087 18.8963 15.5017V17.3042H24.3437L23.4078 22.4008H18.8963V33.8594C27.1542 32.8621 33.5529 25.8309 33.5529 17.3042C33.5523 8.09369 26.0855 0.626953 16.875 0.626953Z" fill="white"/>
</g>
<defs>
<clipPath id="clip0_55_311">
<rect width="33.3545" height="33.3545" fill="white" transform="translate(0.197754 0.626953)"/>
</clipPath>
</defs>
</svg>
